<?xml version="1.0" encoding="utf-8"?>
<svg version="1.2" baseProfile="tiny" id="Layer_1" xmlns="http://www.w3.org/2000/svg" xmlns:xlink="http://www.w3.org/1999/xlink"
	 x="0px" y="0px" viewBox="0 0 24 24" xml:space="preserve">
<g>
	<linearGradient id="SVGID_1_" gradientUnits="userSpaceOnUse" x1="17.1678" y1="1.0448" x2="17.1678" y2="22.675">
		<stop  offset="0" style="stop-color:#179AFF"/>
		<stop  offset="1" style="stop-color:#17F8FD"/>
	</linearGradient>
	<path fill="url(#SVGID_1_)" d="M19.84,4.23c-1.95-1.95-4.65-3.16-7.63-3.16h-0.87c3.78,1.83,6.45,5.59,6.74,10
		c0.03,0.38,0.05,0.76,0.05,1.14c0,0.05,0,0.1,0,0.15c-0.01,0.18-0.04,0.35-0.07,0.53c-0.36,4.31-3.01,7.97-6.72,9.77h0.87
		c0.03,0,0.05,0,0.08,0C18.21,22.62,23,17.8,23,11.86C23,8.88,21.79,6.18,19.84,4.23z"/>
	<linearGradient id="SVGID_2_" gradientUnits="userSpaceOnUse" x1="14.8527" y1="16.3463" x2="-1.3423" y2="6.4677">
		<stop  offset="0" style="stop-color:#179AFF"/>
		<stop  offset="1" style="stop-color:#17F8FD"/>
	</linearGradient>
	<path fill="url(#SVGID_2_)" d="M6.24,1.07H4.86H1.41H1.39v17.62C1.15,18.84,1,19.11,1,19.41c0,0.31,0.16,0.58,0.41,0.74
		c0.18,0.11,0.4,0.16,0.64,0.12c0.35-0.07,0.62-0.35,0.68-0.69c0.07-0.37-0.1-0.7-0.37-0.89v-2.03c0-0.27,0.22-0.48,0.49-0.48
		c0.13,0,0.25,0.05,0.34,0.14c0.09,0.09,0.14,0.21,0.14,0.34v4.41c-0.28,0.18-0.44,0.52-0.37,0.89c0.06,0.35,0.34,0.63,0.68,0.69
		c0.06,0.01,0.12,0.02,0.18,0.02c0.48,0,0.87-0.39,0.87-0.87c0-0.3-0.15-0.57-0.39-0.73v-3.62c0-0.27,0.22-0.48,0.49-0.48
		c0.13,0,0.25,0.05,0.34,0.14c0.09,0.09,0.14,0.21,0.14,0.34v1.65C5,19.28,4.83,19.62,4.9,19.98c0.06,0.35,0.34,0.63,0.68,0.69
		c0.56,0.11,1.05-0.32,1.05-0.86c0-0.3-0.15-0.57-0.39-0.73V5.92h5.96c2.89,0,5.3,2.07,5.83,4.81c0.01,0.11,0.02,0.22,0.04,0.34
		c-0.29-4.41-2.96-8.17-6.74-10h-0.34H6.24z"/>
	<linearGradient id="SVGID_3_" gradientUnits="userSpaceOnUse" x1="5.9181" y1="22.9247" x2="18.3673" y2="13.597">
		<stop  offset="0" style="stop-color:#179AFF"/>
		<stop  offset="1" style="stop-color:#17F8FD"/>
	</linearGradient>
	<path fill="url(#SVGID_3_)" d="M18.05,12.89c-0.49,2.79-2.92,4.92-5.85,4.92H7.32v0.85c0.25,0.33,0.39,0.74,0.39,1.17
		c0,1.07-0.87,1.95-1.94,1.95v0.01c0,0.31-0.07,0.61-0.21,0.87h5.77C15.05,20.86,17.69,17.2,18.05,12.89z"/>
</g>
</svg>
