<svg version="1.2" xmlns="http://www.w3.org/2000/svg" viewBox="1 1 21 21" width="21" height="21">
	<title>SVG File-svg</title>
	<style>
		.s0 { fill: #000000 } 
	</style>
	<g id="Layer 1">
		<path id="Layer" class="s0" d="m12.1 3h-9v11.7 0.8 3.5c-0.1 0.1-0.2 0.2-0.2 0.4 0 0.2 0.1 0.3 0.2 0.4 0.1 0.1 0.2 0.1 0.3 0.1 0.2 0 0.3-0.2 0.4-0.4 0-0.2-0.1-0.4-0.2-0.5v-2c0-0.1 0.1-0.3 0.3-0.3 0.1 0 0.1 0 0.2 0.1 0 0 0.1 0.1 0.1 0.2v3.2c-0.1 0.1-0.2 0.3-0.2 0.5-0.1 0.2 0 0.3 0.2 0.3h0.1c0.2 0 0.5-0.2 0.5-0.5 0-0.2-0.1-0.3-0.2-0.4v-2.8c0-0.1 0.1-0.3 0.3-0.3 0.1 0 0.1 0 0.2 0.1 0.1 0 0.1 0.1 0.1 0.2v1.7c-0.1 0.1-0.2 0.3-0.2 0.5 0 0.2 0.2 0.3 0.4 0.4 0.3 0.1 0.5-0.2 0.5-0.4 0-0.2-0.1-0.3-0.2-0.4v-3.7-0.8-9.1h6.5c3.6 0 6.5 2.9 6.5 6.5 0 3.6-2.9 6.5-6.5 6.5h-5.8v0.3c0.1 0.2 0.2 0.4 0.2 0.7 0 0.3-0.1 0.7-0.4 0.9-0.2 0.2-0.4 0.3-0.7 0.4 0 0.1 0 0.2-0.1 0.2h6.6c5 0 9-4 9-9 0.1-5-3.9-9-8.9-9z"/>
	</g>
</svg>